<svg xmlns="http://www.w3.org/2000/svg" viewBox="0 0 24 24" fill="currentColor"><path d="M12 2a10 10 0 0 0-8.94 14.47L2 22l5.66-1.48A10 10 0 1 0 12 2zm0 1.5a8.5 8.5 0 1 1 0 17c-1.36 0-2.68-.33-3.87-.97l-.28-.15-3.36.88.9-3.28-.18-.29A8.5 8.5 0 0 1 12 3.5zm4.13 11.36c-.23-.12-1.36-.67-1.57-.75-.21-.08-.36-.12-.51.12-.15.23-.58.75-.71.9-.13.15-.26.17-.49.06-.23-.12-.97-.36-1.85-1.13-.68-.6-1.14-1.34-1.28-1.57-.13-.23-.01-.35.1-.46.1-.1.23-.26.34-.39.11-.13.15-.23.23-.38.08-.15.04-.29-.02-.41-.06-.12-.51-1.23-.7-1.68-.18-.44-.37-.38-.51-.39-.13-.01-.29-.01-.45-.01-.16 0-.41.06-.62.29-.21.23-.81.79-.81 1.93 0 1.14.83 2.25.95 2.41.12.16 1.63 2.5 4.01 3.4.56.19.99.3 1.33.38.56.12 1.07.1 1.47.06.45-.05 1.36-.56 1.55-1.1.19-.54.19-1.01.13-1.1-.06-.09-.21-.14-.44-.26z"/></svg> 